<svg  xmlns="http://www.w3.org/2000/svg" version="1.0" width="12" viewBox="0 0 366.000000 364.000000" preserveAspectRatio="xMidYMid meet" fill="#6dbae2">
                        <g transform="translate(0.000000,364.000000) scale(0.100000,-0.100000)" fill="" stroke="none">
                            <path d="M2345 3589 c-51 -29 -55 -44 -55 -212 l0 -158 28 -26 27 -26 282 6 c155 3 284 3 288 -1 3 -3 -440 -452 -985 -997 -941 -941 -990 -992 -990 -1026 0 -32 11 -46 109 -142 59 -59 116 -107 125 -107 9 0 29 6 44 14 15 8 466 454 1002 990 536 537 979 976 984 976 6 0 7 -111 3 -276 -8 -307 -5 -322 54 -343 41 -14 266 -14 307 0 64 22 62 -4 62 668 l0 610 -24 28 -24 28 -609 2 c-432 2 -614 -1 -628 -8z" />
                            <path d="M285 3136 c-110 -35 -188 -106 -225 -202 -20 -54 -20 -72 -20 -1359 0 -1287 0 -1305 20 -1359 28 -73 87 -138 162 -175 l61 -31 1327 0 1327 0 61 31 c75 37 134 102 162 175 19 53 20 76 20 674 l0 618 -31 31 c-30 31 -32 31 -132 31 -106 -1 -119 -5 -150 -50 -16 -22 -17 -74 -17 -590 0 -427 -3 -569 -12 -578 -17 -17 -2439 -17 -2456 0 -18 18 -17 2431 1 2446 9 8 190 12 583 14 625 3 599 1 629 64 21 44 20 166 -2 211 -30 64 -18 63 -675 62 -450 0 -603 -3 -633 -13z" />
                        </g>
                    </svg>